<?xml version="1.0" encoding="iso-8859-1"?>
<!-- Generator: Adobe Illustrator 19.0.0, SVG Export Plug-In . SVG Version: 6.00 Build 0)  -->
<svg version="1.1" id="Layer_1" xmlns="http://www.w3.org/2000/svg" xmlns:xlink="http://www.w3.org/1999/xlink" x="0px" y="0px"
	 viewBox="0 0 392.469 392.469" style="enable-background:new 0 0 392.469 392.469;" xml:space="preserve">
<path style="fill:#FFFFFF;" d="M369.487,32.453c0-5.947-4.848-10.796-10.796-10.796H33.778c-5.947,0-10.796,4.848-10.796,10.796
	v25.341h42.667c5.947,0,10.796,4.848,10.796,10.796s-4.848,10.796-10.796,10.796H22.982v21.527h24.113
	c5.947,0,10.796,4.848,10.796,10.796c0,5.947-4.848,10.796-10.796,10.796H22.982v96.84h346.505V32.453L369.487,32.453z"/>
<path style="fill:#FFC10D;" d="M22.982,264.339c0,5.947,4.848,10.796,10.796,10.796h236.929v-11.119
	c0-5.947,4.848-10.796,10.796-10.796c5.948,0,10.796,4.848,10.796,10.796v11.119h22.626v-11.119c0-5.947,4.848-10.796,10.796-10.796
	s10.796,4.848,10.796,10.796v11.119h21.915c5.947,0,10.796-4.848,10.796-10.796v-23.273H22.982V264.339z"/>
<path style="fill:#56ACE0;" d="M254.158,344.63l-18.941-47.838h-78.028l-18.941,47.838c-1.616,4.073-5.624,6.853-10.02,6.853
	h-23.143v19.394h182.303v-19.394h-23.208C259.846,351.483,255.838,348.832,254.158,344.63z"/>
<path style="fill:#194F82;" d="M358.691,0H33.778C15.871,0,1.325,14.61,1.325,32.453v231.887c0,17.907,14.61,32.453,32.453,32.453
	h100.137l-13.059,32.97H94.222c-5.947,0-10.796,4.848-10.796,10.796v41.115c0,5.947,4.848,10.796,10.796,10.796h204.024
	c5.947,0,10.796-4.848,10.796-10.796v-41.051c0-5.947-4.848-10.796-10.796-10.796h-26.634l-13.059-32.97h100.137
	c17.907,0,32.453-14.61,32.453-32.453V32.453C391.143,14.61,376.598,0,358.691,0z M369.487,264.339
	c0,5.947-4.848,10.796-10.796,10.796h-21.915v-11.119c0-5.947-4.848-10.796-10.796-10.796c-5.948,0-10.796,4.848-10.796,10.796
	v11.119h-22.626v-11.119c0-5.947-4.848-10.796-10.796-10.796s-10.796,4.848-10.796,10.796v11.119H33.778
	c-5.947,0-10.796-4.848-10.796-10.796v-23.273h346.505V264.339L369.487,264.339z M287.386,351.483v19.394H105.083v-19.394h23.208
	c4.396,0,8.404-2.715,10.02-6.853l18.941-47.838h77.964l19.006,47.838c1.616,4.073,5.624,6.853,10.02,6.853H287.386z
	 M22.982,122.699h24.113c5.947,0,10.796-4.848,10.796-10.796c0-5.947-4.848-10.796-10.796-10.796H22.982V79.58h42.667
	c5.947,0,10.796-4.848,10.796-10.796c0-5.947-4.848-10.796-10.796-10.796H22.982V32.582c0-5.947,4.848-10.796,10.796-10.796h324.848
	c5.947,0,10.796,4.848,10.796,10.796v187.022H22.982V122.699z"/>
<polygon style="fill:#FFC10D;" points="171.604,117.075 261.269,99.362 261.269,77.446 165.851,77.446 "/>
<g>
	<path style="fill:#194F82;" d="M278.465,150.885H161.842l7.24-11.313l105.18-20.816c5.107-1.034,8.727-5.495,8.727-10.602V66.521
		c0-5.947-4.848-10.796-10.796-10.796H162.683l-1.745-11.636c-0.776-5.236-5.301-9.18-10.731-9.18h-36.137
		c-5.947,0-10.796,4.848-10.796,10.796s4.848,10.796,10.796,10.796h26.893l10.279,70.853l-18.295,28.444
		c-2.133,3.297-2.327,7.564-0.388,11.055s5.56,5.624,9.503,5.624h136.404c5.947,0,10.796-4.848,10.796-10.796
		C289.196,155.798,284.412,150.885,278.465,150.885z M261.269,99.362l-89.729,17.713l-5.689-39.628h95.418V99.362z"/>
	<path style="fill:#194F82;" d="M176.388,182.174h-13.705c-5.947,0-10.796,4.848-10.796,10.796s4.848,10.796,10.796,10.796h13.705
		c5.947,0,10.796-4.848,10.796-10.796C187.184,187.087,182.335,182.174,176.388,182.174z"/>
	<path style="fill:#194F82;" d="M257.713,182.174h-13.576c-5.947,0-10.796,4.848-10.796,10.796s4.848,10.796,10.796,10.796h13.705
		c5.947,0,10.796-4.848,10.796-10.796C268.574,187.087,263.79,182.174,257.713,182.174z"/>
</g>
<g>
</g>
<g>
</g>
<g>
</g>
<g>
</g>
<g>
</g>
<g>
</g>
<g>
</g>
<g>
</g>
<g>
</g>
<g>
</g>
<g>
</g>
<g>
</g>
<g>
</g>
<g>
</g>
<g>
</g>
</svg>
